<svg xmlns="http://www.w3.org/2000/svg" width="16" height="16" viewBox="0 0 16 16"><g transform="translate(0 -1036.362)"><path fill="#e7e5f2" d="m 4.5000105,1038.855 7.9999745,1.0001 0,3 -7.9999745,1 z"/><path fill="#e74f69" d="M6.0000328 1039.355l.9999626 0c.0000102 0 .0000185 0 .0000185 0l0 3.9999c0 0-.0000083 0-.0000185 0l-.9999626 0c-.0000102 0-.0000185 0-.0000185 0l0-3.9999c0 0 .0000083 0 .0000185 0zM8.0000056 1039.355l.9999634 0c.0000102 0 .0000185 0 .0000185 0l0 3.9999c0 0-.0000083 0-.0000185 0l-.9999634 0c-.0000102 0-.0000185 0-.0000185 0l0-3.9999c0 0 .0000083 0 .0000185 0zM10.000037 1039.355l.999963 0c.00001 0 .000018 0 .000018 0l0 3.9999c0 0-.000008 0-.000018 0l-.999963 0c-.000011 0-.000019 0-.000019 0l0-3.9999c0 0 .000008 0 .000019 0z"/><path d="M 4.4921875,1037.3555 A 0.50004994,0.50004994 0 0 0 4,1037.8613 l 0,13 a 0.50004994,0.50004994 0 1 0 1,0 l 0,-13 a 0.50004994,0.50004994 0 0 0 -0.5078125,-0.5058 z" style="line-height:normal;text-indent:0;text-align:start;text-decoration-line:none;text-decoration-style:solid;text-decoration-color:#000;text-transform:none;block-progression:tb;white-space:normal;isolation:auto;mix-blend-mode:normal;solid-color:#000;solid-opacity:1" color="#000" enable-background="accumulate" font-family="sans-serif" font-weight="400" overflow="visible"/><path d="M 4.4628906,1038.3555 A 0.50004994,0.50004994 0 0 0 4,1038.8555 l 0,5 a 0.50004994,0.50004994 0 0 0 0.5625,0.4961 l 8,-1 A 0.50004994,0.50004994 0 0 0 13,1042.8555 l 0,-3 a 0.50004994,0.50004994 0 0 0 -0.4375,-0.4961 l -8,-1 a 0.50004994,0.50004994 0 0 0 -0.099609,-0 z M 5,1039.4219 l 7,0.875 0,2.1172 -7,0.875 0,-3.8672 z" style="line-height:normal;text-indent:0;text-align:start;text-decoration-line:none;text-decoration-style:solid;text-decoration-color:#000;text-transform:none;block-progression:tb;white-space:normal;isolation:auto;mix-blend-mode:normal;solid-color:#000;solid-opacity:1" color="#000" enable-background="accumulate" font-family="sans-serif" font-weight="400" overflow="visible"/></g></svg>